<svg xmlns="http://www.w3.org/2000/svg" xmlns:xlink="http://www.w3.org/1999/xlink" xml:space="preserve" version="1.1" style="shape-rendering:geometricPrecision;text-rendering:geometricPrecision;image-rendering:optimizeQuality;" viewBox="0 0 362 340" x="0px" y="0px" fill-rule="evenodd" clip-rule="evenodd"><defs><style type="text/css">
   
    .fil0 {fill:#000000}
   
  </style></defs><g><path class="fil0" d="M156 47l122 0c17,0 30,14 30,30l0 11 30 0c17,0 28,16 22,32l-44 119c-7,19 -26,33 -46,33l-237 0c-17,0 -33,-14 -33,-31l0 -213c0,-15 13,-28 28,-28l88 0c22,0 40,18 40,40l0 7zm-135 154l36 -98c3,-9 12,-15 23,-15l208 0 0 -11c0,-5 -4,-9 -10,-9l-133 0c-5,0 -10,-5 -10,-11l0 -17c0,-11 -9,-19 -19,-19l-88 0c-4,0 -7,3 -7,7l0 173zm320 -88c1,-2 -1,-5 -3,-5l-258 0c-2,0 -3,1 -4,2l-49 133c-1,2 0,7 3,7l246 0c10,-2 18,-9 21,-18l44 -119z"/></g><text x="0" y="287" fill="#000000" font-size="5px" font-weight="bold" font-family="'Helvetica Neue', Helvetica, Arial-Unicode, Arial, Sans-serif">Created by iejank</text><text x="0" y="292" fill="#000000" font-size="5px" font-weight="bold" font-family="'Helvetica Neue', Helvetica, Arial-Unicode, Arial, Sans-serif">from the Noun Project</text></svg>
