<svg xmlns="http://www.w3.org/2000/svg" xmlns:xlink="http://www.w3.org/1999/xlink" viewBox="0 0 18 22.5" version="1.1" x="0px" y="0px"><title>Share Link</title><desc>Created with Sketch.</desc><g stroke="none" stroke-width="1" fill="none" fill-rule="evenodd"><g transform="translate(-424.000000, -219.000000)" fill-rule="nonzero" fill="#000000"><path d="M433.099906,220.995072 L433.099906,221 L427.991351,221 C426.898212,221 426,221.897298 426,222.994783 L426,233.005217 C426,234.105063 426.894443,235 427.994783,235 L438.005217,235 C439.104525,235 440,234.103942 440,233.000409 L440,228.977314 L440.000252,228.977314 C440.012313,228.435507 440.455297,228 441,228 C441.544703,228 441.987687,228.435507 441.999748,228.977314 L442,228.977314 L442,233.000409 C442,235.209322 440.208284,237 438.005217,237 L427.994783,237 C425.788525,237 424,235.208284 424,233.005217 L424,222.994783 C424,220.788525 425.797849,219 427.991351,219 L433.099906,219 L433.099906,219.004928 C433.605284,219.055057 434,219.481433 434,220 C434,220.518567 433.605284,220.944943 433.099906,220.995072 Z M435.606521,228.10737 L436.843958,229.344807 L433.708489,232.480276 C432.59696,233.591805 430.67369,233.228364 429.342172,231.896846 C428.016442,230.571116 427.647677,228.641594 428.755303,227.533967 L431.894244,224.395027 L433.131681,225.632463 L429.99274,228.771404 C429.711584,229.05256 429.876737,229.916705 430.599524,230.639493 C431.327616,231.367585 432.1844,231.529492 432.471053,231.242839 L435.606521,228.10737 Z M438.103842,228.084924 L436.866405,226.847487 L440.001873,223.712018 C440.288526,223.425365 440.126619,222.568581 439.398528,221.84049 C438.67574,221.117702 437.811595,220.952549 437.530438,221.233706 L434.391498,224.372646 L433.154061,223.135209 L436.293002,219.996269 C437.400628,218.888642 439.33015,219.257407 440.65588,220.583137 C441.987399,221.914656 442.35084,223.837926 441.23931,224.949455 L438.103842,228.084924 Z M435.64469,224.35689 C435.988697,224.012884 436.542196,224.008639 436.886287,224.35273 C437.227996,224.694439 437.233729,225.242726 436.882127,225.594327 L434.355827,228.120628 C434.01182,228.464634 433.458321,228.468879 433.11423,228.124788 C432.772521,227.783079 432.766788,227.234792 433.11839,226.883191 L435.64469,224.35689 Z"/></g></g><text x="0" y="33" fill="#000000" font-size="5px" font-weight="bold" font-family="'Helvetica Neue', Helvetica, Arial-Unicode, Arial, Sans-serif">Created by Arunkumar</text><text x="0" y="38" fill="#000000" font-size="5px" font-weight="bold" font-family="'Helvetica Neue', Helvetica, Arial-Unicode, Arial, Sans-serif">from the Noun Project</text></svg>