<svg xmlns="http://www.w3.org/2000/svg" xmlns:xlink="http://www.w3.org/1999/xlink" xmlns:sketch="http://www.bohemiancoding.com/sketch/ns" viewBox="0 0 100 125" version="1.1" x="0px" y="0px"><title>copy</title><desc>Created with Sketch Beta.</desc><g stroke="none" stroke-width="1" fill="none" fill-rule="evenodd" sketch:type="MSPage"><g sketch:type="MSArtboardGroup" fill="#000000"><path d="M6,38.0085154 C6,33.5855345 9.57805502,30 14.0085154,30 L61.9914846,30 C66.4144655,30 70,33.578055 70,38.0085154 L70,85.9914846 C70,90.4144655 66.421945,94 61.9914846,94 L14.0085154,94 C9.58553448,94 6,90.421945 6,85.9914846 L6,38.0085154 L6,38.0085154 L6,38.0085154 L6,38.0085154 Z M14,38 L62,38 L62,86 L14,86 L14,38 L14,38 L14,38 Z M86,70 C90.418278,70 94,66.4092877 94,62 L94,54 L86,54 L86,62 L78,62 L78,70 L86,70 L86,70 L86,70 Z M94,14 C94,9.581722 90.4092877,6 86,6 L78,6 L78,14 L86,14 L86,22 L94,22 L94,14 L94,14 L94,14 Z M38,6 C33.581722,6 30,9.59071231 30,14 L30,22 L38,22 L38,14 L46,14 L46,6 L38,6 L38,6 L38,6 Z M54,6 L70,6 L70,14 L54,14 L54,6 L54,6 L54,6 L54,6 Z M86,30 L94,30 L94,46 L86,46 L86,30 L86,30 L86,30 L86,30 Z" sketch:type="MSShapeGroup"/></g></g><text x="0" y="115" fill="#000000" font-size="5px" font-weight="bold" font-family="'Helvetica Neue', Helvetica, Arial-Unicode, Arial, Sans-serif">Created by Napoleon</text><text x="0" y="120" fill="#000000" font-size="5px" font-weight="bold" font-family="'Helvetica Neue', Helvetica, Arial-Unicode, Arial, Sans-serif">from the Noun Project</text></svg>