<svg xmlns:dc="http://purl.org/dc/elements/1.1/" xmlns:cc="http://creativecommons.org/ns#" xmlns:rdf="http://www.w3.org/1999/02/22-rdf-syntax-ns#" xmlns:svg="http://www.w3.org/2000/svg" xmlns="http://www.w3.org/2000/svg" xmlns:sodipodi="http://sodipodi.sourceforge.net/DTD/sodipodi-0.dtd" xmlns:inkscape="http://www.inkscape.org/namespaces/inkscape" preserveAspectRatio="xMidYMid" viewBox="0 0 55 78.75" version="1.1" x="0px" y="0px"><defs><style>

      .cls-3 {
        fill: #000000;
      }
    </style></defs><path style="" d="M 10.09375 0 C 4.91975 0 8.5435131e-018 3.44275 0 9.21875 L 0 55.3125 C 0 59.3365 3.49125 63 7.78125 63 L 8.5625 63 L 47.8125 63 C 47.941859 62.993489 48.059381 62.982227 48.1875 62.96875 C 51.453011 62.792646 54.189229 60.375051 54.84375 56.90625 C 54.845644 56.896212 54.841891 56.885056 54.84375 56.875 C 54.894162 56.632388 54.941831 56.376024 54.96875 56.125 C 54.969707 56.114692 54.967829 56.104073 54.96875 56.09375 C 54.99574 55.832206 55 55.581938 55 55.3125 L 55 28.3125 L 55 19 C 55 14.438 51.6705 11 47.8125 11 L 30.59375 11 C 29.52475 11 29 10.47425 29 10.15625 L 29 9.21875 C 29 3.78575 24.80225 4.113463e-019 19.40625 0 L 10.09375 0 z M 10.09375 3 L 19.40625 3 C 23.20825 3 26 5.37775 26 9.21875 L 26 10.15625 C 26 12.56125 28.13175 14 30.59375 14 L 47.8125 14 C 50.2855 14 52 16.515 52 19 L 52 23.0625 C 50.772782 22.372368 49.229999 22 47.46875 22 L 23.28125 22 C 19.08825 22 15 23.9765 15 28.3125 L 15 53.59375 C 15 56.68375 13.3005 60 9.6875 60 L 8.5625 60 L 7.78125 60 C 5.15825 60 3 57.6785 3 55.3125 L 3 9.21875 C 3 5.37275 6.47375 3 10.09375 3 z M 23.28125 25 L 47.46875 25 C 51.58275 25 52 27.4065 52 28.3125 L 52 55.3125 C 52 57.5855 50.14075 60 47.46875 60 L 15.71875 60 C 16.90275 58.385 18 56.17575 18 53.59375 L 18 28.3125 C 18 25.8825 20.98725 25 23.28125 25 z M 26 30.09375 C 25.634797 30.112969 25.29675 30.2665 25.03125 30.53125 C 24.67825 30.88425 24.528 31.385 24.625 31.875 L 27.125 44.75 C 27.43 46.315 28.8385 47.4375 30.4375 47.4375 C 31.3235 47.4375 32.15025 47.09975 32.78125 46.46875 L 34 45.25 L 41.03125 52.3125 C 41.76825 53.0515 42.80675 53.46875 43.84375 53.46875 C 44.72475 53.46875 45.55475 53.15175 46.21875 52.59375 C 47.03675 51.90775 47.54775 50.935 47.59375 49.875 C 47.64075 48.811 47.22475 47.757 46.46875 47 L 39.375 39.875 L 40.96875 38.28125 C 41.84475 37.40625 42.1735 36.1205 41.8125 34.9375 C 41.4515 33.7545 40.465 32.862 39.25 32.625 L 26.375 30.125 C 26.25275 30.10075 26.121734 30.087344 26 30.09375 z M 28 33.5 L 38.6875 35.5625 C 38.8535 35.5955 38.9105 35.7245 38.9375 35.8125 C 38.9655 35.9015 38.96375 36.03725 38.84375 36.15625 L 36.1875 38.8125 C 35.6015 39.3985 35.6015 40.3515 36.1875 40.9375 L 44.34375 49.125 C 44.56775 49.35 44.59975 49.58675 44.59375 49.71875 C 44.58675 49.87875 44.5395 50.1205 44.3125 50.3125 C 44.1525 50.4455 43.96875 50.46875 43.84375 50.46875 C 43.59575 50.46875 43.33625 50.3675 43.15625 50.1875 L 35.0625 42.0625 C 34.7695 41.7695 34.384 41.625 34 41.625 C 33.616 41.625 33.2305 41.7695 32.9375 42.0625 L 30.65625 44.34375 C 30.58825 44.41275 30.5265 44.4375 30.4375 44.4375 C 30.4075 44.4375 30.14675 44.4565 30.09375 44.1875 L 28 33.5 z " fill="#000000" fill-rule="evenodd"/><text x="0" y="78" fill="#000000" font-size="5px" font-weight="bold" font-family="'Helvetica Neue', Helvetica, Arial-Unicode, Arial, Sans-serif">Created by Shital Patel</text><text x="0" y="83" fill="#000000" font-size="5px" font-weight="bold" font-family="'Helvetica Neue', Helvetica, Arial-Unicode, Arial, Sans-serif">from the Noun Project</text></svg>